<?xml version="1.0" encoding="UTF-8"?>
<svg width="52px" height="52px" viewBox="0 0 52 52" version="1.1" xmlns="http://www.w3.org/2000/svg" xmlns:xlink="http://www.w3.org/1999/xlink">
    <!-- Generator: Sketch 48.2 (47327) - http://www.bohemiancoding.com/sketch -->
    <title>Instagram Gray</title>
    <desc>Created with Sketch.</desc>
    <defs>
        <circle id="path-1" cx="24" cy="24" r="24"></circle>
        <filter x="-7.3%" y="-5.2%" width="114.6%" height="114.6%" filterUnits="objectBoundingBox" id="filter-2">
            <feOffset dx="0" dy="1" in="SourceAlpha" result="shadowOffsetOuter1"></feOffset>
            <feGaussianBlur stdDeviation="1" in="shadowOffsetOuter1" result="shadowBlurOuter1"></feGaussianBlur>
            <feColorMatrix values="0 0 0 0 0   0 0 0 0 0   0 0 0 0 0  0 0 0 0.16 0" type="matrix" in="shadowBlurOuter1"></feColorMatrix>
        </filter>
    </defs>
    <g id="AHA_UI_Kit_Page2" stroke="none" stroke-width="1" fill="none" fill-rule="evenodd" transform="translate(-487.000000, -5431.000000)">
        <g id="Instagram-Gray" transform="translate(489.000000, 5432.000000)">
            <g id="Base">
                <use fill="black" fill-opacity="1" filter="url(#filter-2)" xlink:href="#path-1"></use>
                <use fill="#6D6E71" fill-rule="evenodd" xlink:href="#path-1"></use>
            </g>
            <path d="M27.5205647,16 L20.3909647,16 C17.9697882,16 16,17.9698824 16,20.3910588 L16,27.5206588 C16,29.9419294 17.9697882,31.9117176 20.3909647,31.9117176 L27.5205647,31.9117176 C29.9419294,31.9117176 31.9117176,29.9418353 31.9117176,27.5206588 L31.9117176,20.3910588 C31.9118118,17.9698824 29.9419294,16 27.5205647,16 Z M30.5000471,27.5206588 C30.5000471,29.1634824 29.1634824,30.4999529 27.5206588,30.4999529 L20.3909647,30.4999529 C18.7482353,30.5000471 17.4117647,29.1634824 17.4117647,27.5206588 L17.4117647,20.3910588 C17.4117647,18.7483294 18.7482353,17.4117647 20.3909647,17.4117647 L27.5205647,17.4117647 C29.1633882,17.4117647 30.4999529,18.7483294 30.4999529,20.3910588 L30.4999529,27.5206588 L30.5000471,27.5206588 Z" id="Shape" fill="#FFFFFF" fill-rule="nonzero"></path>
            <path d="M23.9558588,19.856 C21.6950588,19.856 19.8558118,21.6952471 19.8558118,23.9560471 C19.8558118,26.2167529 21.6950588,28.0559059 23.9558588,28.0559059 C26.2166588,28.0559059 28.0559059,26.2167529 28.0559059,23.9560471 C28.0559059,21.6952471 26.2166588,19.856 23.9558588,19.856 Z M23.9558588,26.6440471 C22.4736,26.6440471 21.2675765,25.4382118 21.2675765,23.9559529 C21.2675765,22.4736 22.4735059,21.2676706 23.9558588,21.2676706 C25.4382118,21.2676706 26.6441412,22.4736 26.6441412,23.9559529 C26.6441412,25.4382118 25.4381176,26.6440471 23.9558588,26.6440471 Z" id="Shape" fill="#FFFFFF" fill-rule="nonzero"></path>
            <path d="M28.2278588,18.6589176 C27.9558588,18.6589176 27.6886588,18.7690353 27.4965647,18.9619765 C27.3035294,19.1539765 27.1925647,19.4212706 27.1925647,19.6942118 C27.1925647,19.9663059 27.3036235,20.2335059 27.4965647,20.4264471 C27.6885647,20.6184471 27.9558588,20.7295059 28.2278588,20.7295059 C28.5008,20.7295059 28.7671529,20.6184471 28.9600941,20.4264471 C29.1530353,20.2335059 29.2631529,19.9662118 29.2631529,19.6942118 C29.2631529,19.4212706 29.1530353,19.1539765 28.9600941,18.9619765 C28.7680941,18.7690353 28.5008,18.6589176 28.2278588,18.6589176 Z" id="Shape" fill="#FFFFFF" fill-rule="nonzero"></path>
        </g>
    </g>
</svg>